<?xml version="1.0" encoding="utf-8"?>
<!-- Generator: Adobe Illustrator 22.0.1, SVG Export Plug-In . SVG Version: 6.00 Build 0)  -->
<svg version="1.1" id="Layer_1" xmlns="http://www.w3.org/2000/svg" xmlns:xlink="http://www.w3.org/1999/xlink" x="0px" y="0px"
	 viewBox="0 0 806.2 317.5" style="enable-background:new 0 0 806.2 317.5;" xml:space="preserve">
<style type="text/css">
	.st0{enable-background:new    ;}
	.st1{fill:#FFFFFF;}
	.st2{fill:none;stroke:#FFFFFF;stroke-width:8;stroke-miterlimit:10;}
	.st3{fill:#FFFFFF;stroke:#231F20;stroke-width:8;stroke-miterlimit:10;}
</style>
<g class="st0">
	<path class="st1" d="M41.9,72.3c13,0,36.4,1,53.6,14.7c7.4,5.6,21,20,21,48.3c0,11.6-2.4,31.9-23.1,45.9
		c32.6,8.1,44.5,36.4,44.5,58.8s-11.2,40.6-23.8,50.4c-18.6,14.7-39.9,15.4-56,15.4H0V72.3H41.9z M25.8,174.9h19.6
		c13.6,0,45.9-2.8,45.9-38.9c0-38.5-37.8-39.2-45.2-39.2H25.8V174.9z M25.8,281.3h29.8c15.1,0,29.8-1.1,41-9.8
		c9.1-6.7,15.4-18.2,15.4-32.2c0-18.6-10.9-29.4-20-34.3c-8.8-4.9-21-7-39.6-7H25.8V281.3z"/>
</g>
<polygon class="st1" points="777.5,71.8 709.2,246.8 639.9,59.9 566.7,246.8 545.8,187.3 592.4,70.4 563.7,70.4 532.6,150 
	505.1,71.8 476.5,71.8 518.4,186.6 495.4,245.4 426.1,58.5 352.9,245.4 291.3,70.4 262.6,70.4 352.2,316.1 425.7,129.2 494.4,316.1 
	531.6,222.9 566.1,317.5 639.6,130.6 708.2,317.5 806.2,71.8 "/>
<rect x="165.8" y="52.3" class="st2" width="69" height="251.6"/>
<line class="st2" x1="169.8" y1="178.1" x2="200.3" y2="178.1"/>
<line class="st2" x1="169.5" y1="241" x2="200" y2="241"/>
<line class="st2" x1="169.5" y1="117" x2="200" y2="117"/>
<line class="st2" x1="169.5" y1="147.6" x2="185" y2="147.6"/>
<line class="st2" x1="169.5" y1="86.5" x2="185" y2="86.5"/>
<line class="st2" x1="169.5" y1="209.5" x2="185" y2="209.5"/>
<line class="st2" x1="169.5" y1="272.4" x2="185" y2="272.4"/>
<path class="st3" d="M74.7,31.5"/>
<path class="st2" d="M243,4h-42.8h-42.8c-18.6,26.9-82.7,27.5-82.7,27.5v20h251v-20C325.7,31.5,261.6,31,243,4z"/>
</svg>
